<svg width="259" height="249" viewBox="0 0 259 249" fill="none" xmlns="http://www.w3.org/2000/svg">
<path opacity="0.999" fill-rule="evenodd" clip-rule="evenodd" d="M176.189 34.3197C207.87 29.593 246.199 94.0971 236.212 105.48C217.061 119.968 200.022 138.829 183.451 157.542C153.966 188.975 119.935 242.317 72.5142 220.193C52.8067 210.682 37.1398 190.403 30.2641 168.892C14.1815 116.38 63.6867 87.7123 101.097 68.8756C126.278 56.3229 152.435 46.3229 176.189 34.3197Z" fill="#848688" stroke="#353233" stroke-width="1.99998"/>
<path opacity="0.997" fill-rule="evenodd" clip-rule="evenodd" d="M220.011 58.309C223.945 62.9974 227.497 67.9283 230.464 72.8202C233.43 77.7121 235.754 82.4692 237.302 86.8198C238.85 91.1704 239.592 95.0294 239.485 98.1764C239.378 101.323 238.425 103.697 236.68 105.161C233.155 108.118 226.619 107.193 218.509 102.589C210.399 97.9846 201.379 90.0785 193.434 80.6098C185.489 71.1411 179.269 60.8854 176.143 52.0989C173.017 43.3125 173.241 36.7149 176.765 33.7576C180.29 30.8004 186.826 31.7256 194.936 36.3299C203.046 40.9342 212.066 48.8403 220.011 58.309Z" fill="#8D8D8D" stroke="#353233" stroke-width="2.00001"/>
<path opacity="0.997" fill-rule="evenodd" clip-rule="evenodd" d="M213.748 63.5639C216.717 67.1017 219.475 70.7573 221.864 74.322C224.254 77.8867 226.228 81.2908 227.675 84.3398C229.121 87.3888 230.012 90.0231 230.296 92.0922C230.579 94.1613 230.25 95.6248 229.328 96.399C228.405 97.1732 226.907 97.243 224.918 96.6044C222.93 95.9658 220.49 94.6314 217.739 92.6773C214.987 90.7231 211.978 88.1876 208.882 85.2154C205.786 82.2432 202.665 78.8926 199.697 75.3548C193.701 68.21 188.692 60.7367 185.77 54.5789C182.849 48.4211 182.254 44.0833 184.117 42.5198C185.981 40.9562 190.15 42.2949 195.706 46.2415C201.263 50.188 207.753 56.4191 213.748 63.5639Z" fill="#353233"/>
<path opacity="0.997" fill-rule="evenodd" clip-rule="evenodd" d="M236.219 103.244C235.835 103.63 235.548 103.974 235.083 104.246C227.426 108.728 210.409 98.3187 194.749 79.6555C178.204 59.9379 170.817 40.8719 178.156 34.7137C178.712 40.8644 179.155 46.0249 181.151 51.3778C184.988 61.6183 191.284 69.6341 197.816 77.3724C206.781 86.1582 215.024 97.0276 225.772 100.66C229.437 101.882 233.333 102.289 236.219 103.244L236.219 103.244Z" fill="#646464"/>
<path d="M167.909 158.992C188.978 131.917 208.553 114.738 208.553 114.738L167.909 158.992Z" fill="#353233"/>
<path d="M167.909 158.992C188.978 131.917 208.553 114.738 208.553 114.738" stroke="#353233" stroke-width="2" stroke-linecap="round"/>
<path fill-rule="evenodd" clip-rule="evenodd" d="M30.6391 233.508C30.6391 218.295 31.7701 203.656 33.8589 189.971C37.3056 168.074 37.355 149.874 53.3284 127.739C69.3017 105.604 118.601 104.906 134.416 127.686C150.232 150.466 150.489 167.879 153.889 189.801C155.994 203.535 157.135 218.231 157.135 233.508" fill="#424340"/>
<path d="M30.6391 233.508C30.6391 218.295 31.7701 203.656 33.8589 189.971C37.3056 168.074 37.355 149.874 53.3284 127.739C69.3017 105.604 118.601 104.906 134.416 127.686C150.232 150.466 150.489 167.879 153.889 189.801C155.994 203.535 157.135 218.231 157.135 233.508" stroke="#353233" stroke-width="2"/>
</svg>
